<svg width="34" height="32" viewBox="0 0 34 32" fill="none" xmlns="http://www.w3.org/2000/svg">
<g clip-path="url(#clip0_329_5229)">
<path d="M12.2763 22.511C14.1428 26.3225 19.8057 26.4493 21.5758 22.5083C21.0693 21.9769 20.6068 21.3457 20.1938 20.7819L20.1828 20.7684C19.3211 21.4401 18.2778 21.8663 16.915 21.8636C15.4477 21.8609 14.341 21.3106 13.4353 20.4987C13.3802 20.4501 13.3279 20.4016 13.2756 20.3503C13.1462 20.7037 12.981 21.1272 12.8048 21.521C12.6369 21.8986 12.4525 22.2547 12.2763 22.511ZM22.209 22.19C24.2655 23.4982 28.9455 23.8381 30.7653 24.8308C31.3819 25.168 31.938 25.5969 32.3868 26.1768C33.32 27.3853 35.2306 31.7714 32.1335 32.0033H26.3082L27.024 24.1483C25.5181 23.8597 23.9131 23.5063 22.2503 22.6081C22.1622 22.6081 22.1292 22.6458 21.9998 22.7591C20.8408 27.094 13.7326 27.7306 11.756 22.662C10.206 23.4281 8.62582 23.8651 6.82262 24.1375L7.94584 32.006H1.69934C-1.39776 31.7741 0.512803 27.388 1.44606 26.1795C1.8948 25.5996 2.4509 25.1707 3.06757 24.8335C4.91481 23.8192 9.72701 23.4874 11.7257 22.1198C11.8716 21.904 12.0313 21.5884 12.1827 21.2486C12.4112 20.736 12.6204 20.175 12.7553 19.7919C12.1964 19.1472 11.7174 18.4189 11.2577 17.7041L9.79584 15.4247C9.69123 15.4166 9.58661 15.3951 9.47925 15.3654C8.28721 14.9985 7.29338 12.3982 7.48884 11.1708C7.59896 10.4749 7.85224 10.224 8.25692 10.073C8.23765 10.0163 8.22664 9.95698 8.22664 9.89224V7.2703C8.22664 6.28573 8.52947 5.31734 9.01675 4.43797C9.55358 3.47497 10.3162 2.61718 11.1503 1.9644C12.8544 0.639942 15.0623 -0.0236344 17.2592 0.000642779C19.4368 0.0222225 21.6089 0.720865 23.2689 2.10197C24.07 2.76824 24.7473 3.64222 25.218 4.60791C25.6778 5.54932 25.9448 6.57975 25.9448 7.5913V9.75467C25.9448 10.0622 25.6915 10.3103 25.3777 10.3103C25.0638 10.3103 24.8106 10.0622 24.8106 9.75467V7.5913C24.8106 6.7443 24.5848 5.87841 24.1994 5.08536C23.7975 4.25994 23.2194 3.51544 22.5366 2.94897C21.0803 1.73781 19.1697 1.12818 17.2481 1.1093C15.3018 1.08772 13.3527 1.67037 11.8551 2.84107C11.131 3.40754 10.4703 4.14664 10.0078 4.97476C9.60864 5.69499 9.36087 6.48265 9.36087 7.2757V9.77895L9.37739 9.77355L9.84539 10.3427C9.80685 9.36623 9.8041 8.32501 9.84815 7.40518C9.88118 7.08418 9.94175 6.76588 10.0353 6.44488C10.4208 5.09075 11.3926 4.00098 12.5929 3.25109C15.701 1.31161 20.2214 1.58675 22.7954 4.31389C23.6351 5.20405 24.1636 6.38554 24.2765 7.95007L24.1829 11.7993C24.6013 11.9234 24.8711 12.1851 24.9813 12.6086C25.1024 13.0752 24.9702 13.7361 24.5656 14.6344C24.5573 14.6506 24.549 14.6667 24.5408 14.6829L22.8147 17.4667C22.1815 18.4891 21.5373 19.5141 20.7004 20.3233L20.7527 20.3935C21.1904 20.9923 21.6887 21.6721 22.209 22.19ZM10.6355 12.3388L11.3017 14.13C11.3733 14.335 11.3953 14.5157 11.365 14.6694L11.3705 14.6641C12.4057 15.7862 13.6803 16.5981 15.2109 17.0783C15.288 16.9056 15.3954 16.7519 15.5523 16.6332C16.0203 16.2798 17.3885 16.3122 17.8125 16.6548C18.1676 16.9434 18.1731 17.6016 17.9089 17.9469C17.361 18.6644 15.0843 18.0602 14.3217 17.8201C13.0829 17.4316 11.9597 16.4794 10.9383 15.6405L11.9762 17.2563C12.5846 18.2031 13.2205 19.1661 14.0106 19.8755C14.7705 20.558 15.6927 21.0166 16.915 21.022C18.2365 21.0247 19.2028 20.5445 19.9874 19.827C20.8022 19.0798 21.4464 18.0521 22.0824 17.0297L23.7865 14.2783C24.1031 13.5689 24.2214 13.0914 24.1471 12.8136C24.1031 12.6463 23.9159 12.5654 23.5993 12.5519C23.5304 12.5492 23.4616 12.5492 23.3928 12.5492C23.3157 12.5519 23.2359 12.5573 23.1533 12.5654C23.1092 12.5681 23.0652 12.5654 23.0211 12.5573C22.8697 12.5654 22.7128 12.5546 22.5531 12.5331L23.1368 10.0001C18.8036 10.6691 15.5633 7.51577 10.9824 9.36893L11.3127 12.355C11.1283 12.3631 10.9521 12.3577 10.7897 12.3334C10.7374 12.3307 10.6851 12.3361 10.6355 12.3388Z" fill="#313131"/>
</g>
<defs>
<clipPath id="clip0_329_5229">
<rect width="33.8286" height="32" fill="white"/>
</clipPath>
</defs>
</svg>
