<svg width="21" height="21" viewBox="0 0 21 21" fill="none" xmlns="http://www.w3.org/2000/svg">
<rect width="21" height="21" rx="5" fill="#F39314" fill-opacity="0.33"/>
<path d="M7.24619 7.25482C6.9533 7.54772 6.9533 8.02259 7.24619 8.31549L9.93505 11.0043L7.24619 13.6932C6.9533 13.9861 6.9533 14.461 7.24619 14.7539C7.53908 15.0468 8.01396 15.0468 8.30685 14.7539L10.9957 12.065L13.6846 14.7539C13.9775 15.0468 14.4524 15.0468 14.7452 14.7539C15.0381 14.461 15.0381 13.9861 14.7452 13.6932L12.0563 11.0043L14.7452 8.3155C15.0381 8.02261 15.0381 7.54773 14.7452 7.25484C14.4523 6.96194 13.9775 6.96194 13.6846 7.25484L10.9957 9.94368L8.30685 7.25482C8.01396 6.96193 7.53908 6.96193 7.24619 7.25482Z" fill="#F79633"/>
</svg>
