<svg width="24" height="24" viewBox="0 0 24 24" fill="none" xmlns="http://www.w3.org/2000/svg">
<path fill-rule="evenodd" clip-rule="evenodd" d="M17.297 6.57227C16.887 6.57227 16.547 6.23227 16.547 5.82227V4.59827C15.773 4.57227 14.864 4.57227 13.797 4.57227H11.797C10.729 4.57227 9.821 4.57227 9.047 4.59827V5.82227C9.047 6.23227 8.707 6.57227 8.297 6.57227C7.887 6.57227 7.547 6.23227 7.547 5.82227V4.70627C6.602 4.82927 5.953 5.06627 5.497 5.52227C4.895 6.12427 4.675 7.06227 4.594 8.57227H21C20.919 7.06227 20.698 6.12427 20.097 5.52227C19.641 5.06627 18.992 4.82927 18.047 4.70627V5.82227C18.047 6.23227 17.707 6.57227 17.297 6.57227ZM21.041 10.0723C21.0463 10.6009 21.0483 11.1843 21.047 11.8223V12.8223C21.047 13.2323 21.387 13.5723 21.797 13.5723C22.207 13.5723 22.547 13.2323 22.547 12.8223V11.8223C22.547 7.84227 22.547 5.85227 21.157 4.46227C20.385 3.69027 19.427 3.34727 18.047 3.19427V2.32227C18.047 1.91227 17.707 1.57227 17.297 1.57227C16.887 1.57227 16.547 1.91227 16.547 2.32227V3.09727C15.751 3.07227 14.842 3.07227 13.797 3.07227H11.797C10.751 3.07227 9.843 3.07227 9.047 3.09727V2.32227C9.047 1.91227 8.707 1.57227 8.297 1.57227C7.887 1.57227 7.547 1.91227 7.547 2.32227V3.19427C6.167 3.34727 5.209 3.69027 4.437 4.46227C3.047 5.85227 3.047 7.85227 3.047 11.8223V13.8223C3.047 17.8023 3.047 19.7923 4.437 21.1823C5.827 22.5723 7.817 22.5723 11.797 22.5723C12.207 22.5723 12.547 22.2323 12.547 21.8223C12.547 21.4123 12.207 21.0723 11.797 21.0723C8.237 21.0723 6.447 21.0723 5.497 20.1223C4.547 19.1723 4.547 17.3823 4.547 13.8223V11.8223C4.54633 11.1849 4.548 10.6016 4.552 10.0723H21.041ZM17.797 23.0723C15.177 23.0723 13.047 20.9423 13.047 18.3223C13.047 15.7023 15.177 13.5723 17.797 13.5723C20.417 13.5723 22.547 15.7023 22.547 18.3223C22.547 20.9423 20.417 23.0723 17.797 23.0723ZM17.797 15.0723C16.007 15.0723 14.547 16.5323 14.547 18.3223C14.547 20.1123 16.007 21.5723 17.797 21.5723C19.587 21.5723 21.047 20.1123 21.047 18.3223C21.047 16.5323 19.587 15.0723 17.797 15.0723ZM18.267 19.8523C18.417 20.0023 18.607 20.0723 18.797 20.0723C18.987 20.0723 19.177 20.0023 19.327 19.8523C19.617 19.5623 19.617 19.0823 19.327 18.7923L18.547 18.0123V16.3223C18.547 15.9123 18.207 15.5723 17.797 15.5723C17.387 15.5723 17.047 15.9123 17.047 16.3223V18.3223C17.047 18.5223 17.127 18.7123 17.267 18.8523L18.267 19.8523Z" fill="#8F999E"/>
</svg>
