<svg width="77" height="75" viewBox="0 0 77 75" fill="none" xmlns="http://www.w3.org/2000/svg">
<path d="M38.0954 62.5C44.8311 62.5 51.2908 59.8661 56.0537 55.1777C60.8165 50.4893 63.4922 44.1304 63.4922 37.5C63.4922 30.8696 60.8165 24.5107 56.0537 19.8223C51.2908 15.1339 44.8311 12.5 38.0954 12.5C31.3597 12.5 24.9 15.1339 20.1371 19.8223C15.3743 24.5107 12.6986 30.8696 12.6986 37.5C12.6986 44.1304 15.3743 50.4893 20.1371 55.1777C24.9 59.8661 31.3597 62.5 38.0954 62.5ZM38.0954 68.75C20.5621 68.75 6.34937 54.7594 6.34937 37.5C6.34937 20.2406 20.5621 6.25 38.0954 6.25C55.6287 6.25 69.8414 20.2406 69.8414 37.5C69.8414 54.7594 55.6287 68.75 38.0954 68.75ZM34.9208 50H41.27V56.25H34.9208V50ZM34.9208 18.75H41.27V43.75H34.9208V18.75Z" fill="#F39314"/>
</svg>
