<svg width="23" height="23" viewBox="0 0 23 23" fill="none" xmlns="http://www.w3.org/2000/svg">
<g clip-path="url(#clip0_422_734)">
<path d="M20.0292 3.83366H10.3979C10.1869 3.27744 9.81377 2.79739 9.32681 2.45567C8.83985 2.11394 8.26151 1.92628 7.66669 1.91699C7.07681 1.92259 6.50294 2.10951 6.02292 2.45238C5.54289 2.79525 5.17996 3.27749 4.98335 3.83366H2.97085C2.83868 3.82721 2.70653 3.84691 2.58197 3.8916C2.45741 3.9363 2.34289 4.00513 2.24497 4.09415C2.14705 4.18317 2.06766 4.29063 2.01132 4.41037C1.95499 4.53012 1.92283 4.6598 1.91669 4.79199C1.92283 4.92418 1.95499 5.05387 2.01132 5.17361C2.06766 5.29336 2.14705 5.40082 2.24497 5.48983C2.34289 5.57885 2.45741 5.64768 2.58197 5.69238C2.70653 5.73708 2.83868 5.75677 2.97085 5.75033H4.98335C5.17996 6.3065 5.54289 6.78873 6.02292 7.13161C6.50294 7.47448 7.07681 7.66139 7.66669 7.66699C8.26151 7.6577 8.83985 7.47004 9.32681 7.12832C9.81377 6.78659 10.1869 6.30654 10.3979 5.75033H20.0292C20.1614 5.75677 20.2935 5.73708 20.4181 5.69238C20.5426 5.64768 20.6571 5.57885 20.7551 5.48983C20.853 5.40082 20.9324 5.29336 20.9887 5.17361C21.045 5.05387 21.0772 4.92418 21.0834 4.79199C21.0772 4.6598 21.045 4.53012 20.9887 4.41037C20.9324 4.29063 20.853 4.18317 20.7551 4.09415C20.6571 4.00513 20.5426 3.9363 20.4181 3.8916C20.2935 3.84691 20.1614 3.82721 20.0292 3.83366ZM7.66669 5.75033C7.47715 5.75033 7.29186 5.69412 7.13427 5.58882C6.97667 5.48351 6.85384 5.33384 6.7813 5.15873C6.70877 4.98362 6.68979 4.79093 6.72677 4.60503C6.76375 4.41913 6.85502 4.24837 6.98904 4.11435C7.12307 3.98032 7.29383 3.88905 7.47973 3.85207C7.66562 3.8151 7.85831 3.83407 8.03343 3.90661C8.20854 3.97914 8.35821 4.10197 8.46351 4.25957C8.56881 4.41717 8.62502 4.60245 8.62502 4.79199C8.62502 5.04616 8.52405 5.28991 8.34433 5.46964C8.16461 5.64936 7.92085 5.75033 7.66669 5.75033Z" fill="#2D313A"/>
<path d="M20.0292 10.5417H18.0646C17.8536 9.98545 17.4804 9.5054 16.9935 9.16367C16.5065 8.82195 15.9282 8.63429 15.3333 8.625C14.7435 8.6306 14.1696 8.81751 13.6896 9.16039C13.2096 9.50326 12.8466 9.98549 12.65 10.5417H2.97085C2.71668 10.5417 2.47292 10.6426 2.2932 10.8224C2.11348 11.0021 2.01251 11.2458 2.01251 11.5C2.01251 11.7542 2.11348 11.9979 2.2932 12.1776C2.47292 12.3574 2.71668 12.4583 2.97085 12.4583H12.65C12.8466 13.0145 13.2096 13.4967 13.6896 13.8396C14.1696 14.1825 14.7435 14.3694 15.3333 14.375C15.9282 14.3657 16.5065 14.1781 16.9935 13.8363C17.4804 13.4946 17.8536 13.0145 18.0646 12.4583H20.0292C20.2833 12.4583 20.5271 12.3574 20.7068 12.1776C20.8865 11.9979 20.9875 11.7542 20.9875 11.5C20.9875 11.2458 20.8865 11.0021 20.7068 10.8224C20.5271 10.6426 20.2833 10.5417 20.0292 10.5417ZM15.3333 12.4583C15.1438 12.4583 14.9585 12.4021 14.8009 12.2968C14.6433 12.1915 14.5205 12.0419 14.448 11.8667C14.3754 11.6916 14.3564 11.4989 14.3934 11.313C14.4304 11.1271 14.5217 10.9564 14.6557 10.8224C14.7897 10.6883 14.9605 10.5971 15.1464 10.5601C15.3323 10.5231 15.525 10.5421 15.7001 10.6146C15.8752 10.6871 16.0249 10.81 16.1302 10.9676C16.2355 11.1252 16.2917 11.3105 16.2917 11.5C16.2917 11.7542 16.1907 11.9979 16.011 12.1776C15.8313 12.3574 15.5875 12.4583 15.3333 12.4583Z" fill="#2D313A"/>
<path d="M20.0292 17.2497H11.8354C11.6244 16.6935 11.2513 16.2134 10.7643 15.8717C10.2773 15.53 9.69901 15.3423 9.10418 15.333C8.5143 15.3386 7.94043 15.5255 7.46041 15.8684C6.98039 16.2113 6.61745 16.6935 6.42085 17.2497H2.97085C2.71668 17.2497 2.47292 17.3506 2.2932 17.5304C2.11348 17.7101 2.01251 17.9538 2.01251 18.208C2.01251 18.4622 2.11348 18.7059 2.2932 18.8857C2.47292 19.0654 2.71668 19.1663 2.97085 19.1663H6.42085C6.61745 19.7225 6.98039 20.2047 7.46041 20.5476C7.94043 20.8905 8.5143 21.0774 9.10418 21.083C9.69901 21.0737 10.2773 20.8861 10.7643 20.5443C11.2513 20.2026 11.6244 19.7226 11.8354 19.1663H20.0292C20.2833 19.1663 20.5271 19.0654 20.7068 18.8857C20.8865 18.7059 20.9875 18.4622 20.9875 18.208C20.9875 17.9538 20.8865 17.7101 20.7068 17.5304C20.5271 17.3506 20.2833 17.2497 20.0292 17.2497ZM9.10418 19.1663C8.91464 19.1663 8.72935 19.1101 8.57176 19.0048C8.41416 18.8995 8.29133 18.7499 8.21879 18.5747C8.14626 18.3996 8.12728 18.2069 8.16426 18.021C8.20124 17.8351 8.29251 17.6644 8.42654 17.5304C8.56056 17.3963 8.73132 17.3051 8.91722 17.2681C9.10312 17.2311 9.2958 17.2501 9.47092 17.3226C9.64603 17.3952 9.7957 17.518 9.901 17.6756C10.0063 17.8332 10.0625 18.0185 10.0625 18.208C10.0625 18.4622 9.96155 18.7059 9.78182 18.8857C9.6021 19.0654 9.35834 19.1663 9.10418 19.1663Z" fill="#2D313A"/>
</g>
<defs>
<clipPath id="clip0_422_734">
<rect width="23" height="23" fill="white"/>
</clipPath>
</defs>
</svg>
