<svg width="26" height="26" viewBox="0 0 26 26" fill="none" xmlns="http://www.w3.org/2000/svg">
<path d="M6.95499 19.2083C4.53916 17.6266 2.97916 15.2433 2.97916 13.1525C2.97916 9.59914 7.46416 5.24414 13 5.24414C15.2642 5.24414 17.3658 5.96997 19.0558 7.09664" stroke="#F39314" stroke-width="2.16667" stroke-linecap="round" stroke-linejoin="round"/>
<path d="M21.5038 9.32715C22.4691 10.5513 23.0313 11.9055 23.0313 13.1513C23.0313 16.7046 18.5355 21.0596 12.9997 21.0596C12.0138 21.0596 11.0508 20.9188 10.1505 20.6696" stroke="#F39314" stroke-width="2.16667" stroke-linecap="round" stroke-linejoin="round"/>
<path d="M10.5795 15.5633C9.93489 14.9253 9.57414 14.0553 9.57739 13.1486C9.57306 11.2582 11.1027 9.72201 12.9942 9.71876C13.9042 9.71659 14.7774 10.0773 15.4209 10.7208" stroke="#F39314" stroke-width="2.16667" stroke-linecap="round" stroke-linejoin="round"/>
<path d="M16.3686 13.7588C16.1151 15.1585 15.0199 16.2559 13.6202 16.5126" stroke="#F39314" stroke-width="2.16667" stroke-linecap="round" stroke-linejoin="round"/>
<path d="M21.5493 4.60449L4.46081 21.693" stroke="#F39314" stroke-width="2.16667" stroke-linecap="round" stroke-linejoin="round"/>
</svg>
