<svg width="50" height="50" viewBox="0 0 50 50" fill="none" xmlns="http://www.w3.org/2000/svg">
<path d="M25 6.25C21.2917 6.25 17.6665 7.34967 14.5831 9.40994C11.4996 11.4702 9.09641 14.3986 7.67727 17.8247C6.25812 21.2508 5.88681 25.0208 6.61029 28.6579C7.33375 32.295 9.11952 35.636 11.7417 38.2583C14.364 40.8804 17.7049 42.6663 21.3421 43.3898C24.9792 44.1131 28.7492 43.7419 32.1754 42.3227C35.6015 40.9035 38.5298 38.5004 40.59 35.4169C42.6504 32.3335 43.75 28.7083 43.75 25" stroke="#F39314" stroke-width="4.16667" stroke-linecap="round"/>
<path d="M41.2379 15.625C41.4385 15.9724 41.6276 16.3261 41.8056 16.6856" stroke="#F39314" stroke-width="4.16667" stroke-linecap="round"/>
</svg>
