<svg width="24" height="29" viewBox="0 0 24 29" fill="none" xmlns="http://www.w3.org/2000/svg">
<path d="M6.53503 14.7325L7.93631 16.6243L10.4586 12.8408" stroke="white" stroke-linecap="round"/>
<path d="M17.9749 5.26367L17.9807 5.26465C18.9119 5.31242 20.6952 5.93347 21.7219 7.87891C21.8628 8.14587 21.9439 8.30586 22.0549 8.75391C22.1701 9.21907 22.1682 9.54578 22.1682 10.0791V12.251C22.8212 12.4375 23.2991 13.0381 23.2991 13.751V20.4775C23.2987 21.3391 22.6001 22.0371 21.7385 22.0371H13.4709C12.6095 22.0369 11.9107 21.339 11.9104 20.4775V13.751C11.9104 13.0614 12.3584 12.4768 12.9788 12.2705C12.9762 12.2355 12.9737 12.1976 12.9709 12.1572C12.9544 11.9192 12.9352 11.5894 12.9241 11.2227C12.9024 10.5061 12.9092 9.58776 13.053 8.94727C13.3293 7.71639 14.637 5.29617 17.675 5.25977L17.9749 5.26367ZM13.4709 13.1904L13.3577 13.2021C13.1026 13.2547 12.9104 13.4804 12.9104 13.751V20.4775L12.9221 20.5898C12.9669 20.8086 13.139 20.9814 13.3577 21.0264L13.4709 21.0371H21.7385L21.8518 21.0264C22.0705 20.9815 22.2426 20.8086 22.2874 20.5898L22.2991 20.4775V13.751C22.2991 13.4803 22.107 13.2546 21.8518 13.2021L21.8333 13.2002H19.2073V13.1904H13.4709ZM17.5618 8.15332C17.2854 8.12936 16.6398 8.2535 16.2366 8.95996C16.2191 8.99059 16.2159 8.99512 16.2034 9.03027C16.1843 9.08387 16.155 9.18339 16.0989 9.39453C16.0034 9.75376 16.0026 9.90649 16.0022 10.3018L16.0002 12.1904H19.2073V10.0947C19.2073 9.84083 19.2082 9.74263 19.1389 9.43066C19.0987 9.24958 19.0785 9.16468 19.0667 9.12109C19.0642 9.11196 19.0617 9.1065 19.0608 9.10352C18.8236 8.59654 18.382 8.12512 17.6252 8.15527L17.593 8.15625L17.5618 8.15332ZM17.9358 6.2627C15.3594 6.16384 14.2583 8.14782 14.0295 9.16602C13.9165 9.66988 13.9023 10.4735 13.9241 11.1924C13.9334 11.5 13.9498 11.7812 13.9641 12H15.0002L15.0022 10.3008C15.0026 9.87985 15.0029 9.62377 15.1321 9.1377C15.2458 8.71008 15.284 8.61179 15.3684 8.46387C15.9917 7.37172 17.0326 7.11178 17.6292 7.15625C18.9162 7.12462 19.64 7.98113 19.967 8.68066C20.0168 8.78713 20.0381 8.87012 20.1145 9.21387C20.2053 9.62247 20.2073 9.79954 20.2073 10.0947V12.1904H21.1682V10.0791C21.1682 9.5372 21.1663 9.32545 21.0842 8.99414C20.998 8.64611 20.952 8.56333 20.8372 8.3457C20.0038 6.7667 18.5778 6.2981 17.9358 6.2627Z" fill="white"/>
<path d="M16.5537 0.84082C17.6476 0.840844 18.5349 1.72748 18.5352 2.82129V5H17.5352V2.82129C17.5349 2.27977 17.0953 1.84084 16.5537 1.84082H2.82129C2.27989 1.84105 1.84105 2.27989 1.84082 2.82129V26.9238L1.8457 27.0234C1.89579 27.5181 2.31351 27.9041 2.82129 27.9043H16.5537C17.0617 27.9043 17.4802 27.5182 17.5303 27.0234L17.5352 26.9238V22H18.5352V26.9238C18.5349 28.0176 17.6476 28.9043 16.5537 28.9043H2.82129C1.7276 28.9041 0.841039 28.0175 0.84082 26.9238V2.82129C0.841048 1.72761 1.72761 0.841049 2.82129 0.84082H16.5537Z" fill="white"/>
<path d="M6.88538 3.3125H12.6306" stroke="white" stroke-linecap="round"/>
<path d="M4.08289 25.3818L15.4332 25.3818" stroke="white" stroke-linecap="round"/>
<path d="M11.5796 9.68831C9.64866 9.10903 5.75466 9.13286 4.43864 13.3122C4.19095 14.0988 4.16036 14.9449 4.35959 15.7452C5.01979 18.3969 7.21321 21.6186 12.4203 19.4972" stroke="white" stroke-linecap="round"/>
<path d="M16.9459 14.9537C15.7534 15.5079 16.066 16.6735 16.4775 17.3466C16.5239 17.4225 16.537 17.5145 16.5081 17.5985L15.9817 19.1251C15.9189 19.3071 16.0541 19.4968 16.2466 19.4968H18.8362C19.025 19.4968 19.1598 19.3138 19.1038 19.1334L18.631 17.6098C18.6029 17.5194 18.6237 17.4206 18.6811 17.3453C19.5582 16.1954 19.0429 15.4382 18.3744 15.0313C17.9455 14.7701 17.4013 14.742 16.9459 14.9537Z" stroke="white" stroke-linecap="round"/>
</svg>
