<svg width="21" height="20" viewBox="0 0 21 20" fill="none" xmlns="http://www.w3.org/2000/svg">
<path d="M8.00007 10H18.8334M18.8334 10L15.9167 7.5M18.8334 10L15.9167 12.5" stroke="white" stroke-width="1.25" stroke-linecap="round" stroke-linejoin="round"/>
<path d="M12.9984 5.83268C12.9884 4.02016 12.908 3.03857 12.2677 2.39825C11.5354 1.66602 10.3569 1.66602 7.9999 1.66602H7.16657C4.80957 1.66602 3.63099 1.66602 2.89882 2.39825C2.16657 3.13048 2.16657 4.30899 2.16657 6.66602V13.3327C2.16657 15.6897 2.16657 16.8682 2.89882 17.6004C3.53915 18.2408 4.52074 18.3212 6.3334 18.3313M12.9984 14.166C12.9884 15.9785 12.908 16.9601 12.2677 17.6004C11.7332 18.1348 10.9612 18.2793 9.66674 18.3183" stroke="white" stroke-width="1.25" stroke-linecap="round"/>
</svg>
