<svg width="33" height="33" viewBox="0 0 33 33" fill="none" xmlns="http://www.w3.org/2000/svg">
<path d="M25.74 4.38184H21.78C20.3219 4.38184 19.14 5.5638 19.14 7.02184V10.9818C19.14 12.4399 20.3219 13.6218 21.78 13.6218H25.74C27.1981 13.6218 28.38 12.4399 28.38 10.9818V7.02184C28.38 5.5638 27.1981 4.38184 25.74 4.38184Z" stroke="white" stroke-width="1.98" stroke-linecap="round" stroke-linejoin="round"/>
<path d="M11.22 4.38184H7.25999C5.80196 4.38184 4.62 5.5638 4.62 7.02184V10.9818C4.62 12.4399 5.80196 13.6218 7.25999 13.6218H11.22C12.678 13.6218 13.86 12.4399 13.86 10.9818V7.02184C13.86 5.5638 12.678 4.38184 11.22 4.38184Z" stroke="white" stroke-width="1.98" stroke-linecap="round" stroke-linejoin="round"/>
<path d="M25.74 18.9023H21.78C20.3219 18.9023 19.14 20.0843 19.14 21.5423V25.5023C19.14 26.9604 20.3219 28.1423 21.78 28.1423H25.74C27.1981 28.1423 28.38 26.9604 28.38 25.5023V21.5423C28.38 20.0843 27.1981 18.9023 25.74 18.9023Z" stroke="white" stroke-width="1.98" stroke-linecap="round" stroke-linejoin="round"/>
<path d="M11.22 18.9023H7.25999C5.80196 18.9023 4.62 20.0843 4.62 21.5423V25.5023C4.62 26.9604 5.80196 28.1423 7.25999 28.1423H11.22C12.678 28.1423 13.86 26.9604 13.86 25.5023V21.5423C13.86 20.0843 12.678 18.9023 11.22 18.9023Z" stroke="white" stroke-width="1.98" stroke-linecap="round" stroke-linejoin="round"/>
</svg>
