<svg width="40" height="40" viewBox="0 0 40 40" fill="none" xmlns="http://www.w3.org/2000/svg">
<rect width="40" height="40" rx="13.3333" fill="#DEDEDE"/>
<path d="M23.3955 27.4746C23.8069 27.8112 24.4278 27.771 24.7949 27.3672L24.8125 27.3477C25.1489 26.9362 25.1088 26.3153 24.7051 25.9482L24.6982 25.9414L24.6973 25.9424L17.5381 19.6895L24.7041 13.208L24.7773 13.1348C25.1147 12.7596 25.1303 12.1774 24.7764 11.7881C24.4077 11.3827 23.7737 11.3399 23.3584 11.7168L16.1025 18.2793L16.1006 18.2803C15.2401 19.0649 15.2686 20.3489 16.126 21.1055L16.127 21.1074L23.3828 27.4629L23.3896 27.4688L23.3955 27.4746Z" fill="#2D313A" stroke="#2D313A"/>
</svg>
