<svg width="19" height="19" viewBox="0 0 19 19" fill="none" xmlns="http://www.w3.org/2000/svg">
<g clip-path="url(#clip0_1158_389)">
<path d="M4.46428 10.3424C4.52126 10.3421 4.52126 10.3421 4.57938 10.3418C4.70463 10.3413 4.82987 10.3413 4.95512 10.3414C5.04237 10.3413 5.12963 10.3411 5.21688 10.3409C5.39964 10.3406 5.58241 10.3407 5.76518 10.3409C5.99919 10.3411 6.23319 10.3404 6.4672 10.3396C6.64736 10.339 6.82751 10.339 7.00767 10.3391C7.09394 10.3391 7.18022 10.3389 7.26649 10.3385C7.38719 10.3381 7.50788 10.3383 7.62858 10.3388C7.66408 10.3385 7.69958 10.3382 7.73615 10.3379C8.05509 10.3404 8.26665 10.4286 8.49805 10.6494C8.61353 10.8127 8.65094 10.9508 8.6517 11.1486C8.65191 11.1815 8.65213 11.2144 8.65234 11.2482C8.65241 11.3019 8.65241 11.3019 8.65247 11.3567C8.65265 11.3946 8.65284 11.4325 8.65303 11.4715C8.65357 11.597 8.65382 11.7225 8.65403 11.848C8.65424 11.9352 8.65446 12.0225 8.65467 12.1098C8.65506 12.2928 8.65528 12.4759 8.65541 12.6589C8.65561 12.8932 8.6565 13.1274 8.65756 13.3617C8.65825 13.542 8.65844 13.7223 8.6585 13.9027C8.65861 13.989 8.65891 14.0753 8.6594 14.1617C8.66003 14.2827 8.65996 14.4036 8.65972 14.5246C8.66006 14.5601 8.6604 14.5955 8.66075 14.6321C8.65921 14.8805 8.63057 15.0993 8.46587 15.2971C8.44128 15.3171 8.4167 15.3371 8.39136 15.3577C8.36697 15.3783 8.34257 15.3988 8.31743 15.42C8.10713 15.5625 7.91487 15.5589 7.66848 15.5587C7.62984 15.5589 7.5912 15.5592 7.55139 15.5594C7.42371 15.5601 7.29603 15.5603 7.16835 15.5603C7.07947 15.5606 6.99059 15.5608 6.90171 15.5611C6.71538 15.5615 6.52906 15.5617 6.34273 15.5616C6.10427 15.5616 5.86582 15.5626 5.62736 15.5639C5.44376 15.5647 5.26017 15.5649 5.07657 15.5649C4.98867 15.5649 4.90077 15.5653 4.81288 15.5658C4.68977 15.5666 4.5667 15.5664 4.44359 15.5659C4.40747 15.5663 4.37136 15.5667 4.33414 15.5672C4.07188 15.5648 3.8737 15.5079 3.67296 15.3346C3.65641 15.3139 3.63986 15.2932 3.62281 15.2719C3.60568 15.2513 3.58856 15.2306 3.57091 15.2094C3.43562 15.0021 3.44017 14.8101 3.4404 14.5699C3.44015 14.5312 3.4399 14.4926 3.43964 14.4528C3.43894 14.3251 3.43879 14.1974 3.43871 14.0697C3.43847 13.9809 3.43822 13.892 3.43796 13.8031C3.43752 13.6168 3.43738 13.4304 3.43742 13.2441C3.43743 13.0057 3.43642 12.7672 3.43514 12.5287C3.43431 12.3451 3.43417 12.1616 3.4342 11.978C3.43412 11.8901 3.43379 11.8022 3.43322 11.7143C3.43249 11.5912 3.4327 11.4681 3.43315 11.345C3.43273 11.3089 3.43231 11.2727 3.43188 11.2355C3.4343 10.9731 3.49205 10.7767 3.66311 10.5744C3.68349 10.5578 3.70386 10.5413 3.72486 10.5242C3.74505 10.5071 3.76523 10.4899 3.78603 10.4723C4.00193 10.3383 4.21882 10.3417 4.46428 10.3424ZM5.19532 12.0967C5.19532 12.66 5.19532 13.2233 5.19532 13.8037C5.75864 13.8037 6.32196 13.8037 6.90235 13.8037C6.90235 13.2404 6.90235 12.6771 6.90235 12.0967C6.33903 12.0967 5.77571 12.0967 5.19532 12.0967Z" fill="#2D313A" fill-opacity="0.329412"/>
<path d="M4.42919 3.44015C4.46783 3.4399 4.50647 3.43965 4.54628 3.4394C4.67396 3.43869 4.80164 3.43855 4.92932 3.43847C5.0182 3.43823 5.10708 3.43798 5.19596 3.43772C5.38229 3.43727 5.56861 3.43714 5.75494 3.43718C5.9934 3.43719 6.23185 3.43618 6.47031 3.4349C6.65391 3.43407 6.8375 3.43392 7.0211 3.43396C7.109 3.43387 7.1969 3.43355 7.28479 3.43297C7.4079 3.43224 7.53097 3.43246 7.65408 3.4329C7.69019 3.43249 7.72631 3.43207 7.76352 3.43164C8.02601 3.43405 8.22241 3.49181 8.4247 3.66286C8.44126 3.68324 8.45781 3.70362 8.47486 3.72462C8.50055 3.7549 8.50055 3.7549 8.52675 3.78579C8.66073 4.00168 8.65732 4.21858 8.65668 4.46404C8.65687 4.50202 8.65706 4.54 8.65726 4.57914C8.65777 4.70439 8.65774 4.82963 8.65765 4.95488C8.6578 5.04213 8.65796 5.12938 8.65813 5.21663C8.65841 5.3994 8.6584 5.58217 8.6582 5.76493C8.65799 5.99895 8.65862 6.23295 8.65948 6.46696C8.66003 6.64712 8.66006 6.82727 8.65994 7.00743C8.65996 7.0937 8.66016 7.17997 8.66053 7.26624C8.66099 7.38695 8.66074 7.50763 8.66031 7.62834C8.66059 7.66384 8.66087 7.69934 8.66117 7.73591C8.65896 8.01664 8.60111 8.23194 8.40735 8.44804C8.17936 8.64458 7.90975 8.66781 7.62133 8.66486C7.5834 8.66506 7.54546 8.66527 7.50637 8.66547C7.38189 8.66593 7.25745 8.66532 7.13298 8.66466C7.04598 8.66466 6.95897 8.66472 6.87197 8.66482C6.69002 8.66487 6.50808 8.66441 6.32613 8.66356C6.09333 8.66251 5.86055 8.66261 5.62775 8.66308C5.44822 8.66334 5.2687 8.66305 5.08918 8.66259C5.00335 8.66242 4.91753 8.66241 4.8317 8.66255C4.71164 8.66266 4.59159 8.66205 4.47153 8.66124C4.43634 8.66141 4.40115 8.66157 4.3649 8.66175C4.1177 8.659 3.89865 8.62943 3.70196 8.46563C3.68196 8.44104 3.66196 8.41645 3.64136 8.39112C3.62079 8.36672 3.60022 8.34233 3.57903 8.31719C3.43652 8.10689 3.44017 7.91463 3.4404 7.66824C3.44015 7.6296 3.4399 7.59096 3.43964 7.55115C3.43894 7.42346 3.43879 7.29579 3.43871 7.1681C3.43847 7.07922 3.43822 6.99034 3.43796 6.90147C3.43752 6.71514 3.43738 6.52881 3.43742 6.34248C3.43743 6.10402 3.43642 5.86557 3.43514 5.62711C3.43431 5.44352 3.43417 5.25992 3.4342 5.07632C3.43412 4.98843 3.43379 4.90053 3.43322 4.81263C3.43249 4.68953 3.4327 4.56645 3.43315 4.44335C3.43273 4.40723 3.43231 4.37111 3.43188 4.3339C3.4343 4.07163 3.49119 3.87346 3.66441 3.67272C3.68512 3.65617 3.70584 3.63962 3.72718 3.62256C3.7478 3.60544 3.76841 3.58831 3.78966 3.57067C3.99691 3.43537 4.18898 3.43993 4.42919 3.44015ZM5.19532 5.19507C5.19532 5.75839 5.19532 6.32171 5.19532 6.90211C5.75864 6.90211 6.32196 6.90211 6.90235 6.90211C6.90235 6.33879 6.90235 5.77546 6.90235 5.19507C6.33903 5.19507 5.77571 5.19507 5.19532 5.19507Z" fill="#2D313A" fill-opacity="0.329412"/>
<path d="M11.3316 3.44015C11.3702 3.4399 11.4088 3.43965 11.4486 3.4394C11.5763 3.43869 11.704 3.43855 11.8317 3.43847C11.9206 3.43823 12.0094 3.43798 12.0983 3.43772C12.2847 3.43727 12.471 3.43714 12.6573 3.43718C12.8958 3.43719 13.1342 3.43618 13.3727 3.4349C13.5563 3.43407 13.7399 3.43392 13.9235 3.43396C14.0114 3.43387 14.0993 3.43355 14.1872 3.43297C14.3103 3.43224 14.4333 3.43246 14.5564 3.4329C14.5926 3.43249 14.6287 3.43207 14.6659 3.43164C14.9282 3.43405 15.1263 3.49094 15.3271 3.66417C15.3519 3.69524 15.3519 3.69524 15.3772 3.72693C15.4029 3.75786 15.4029 3.75786 15.4291 3.78941C15.5644 3.99667 15.5599 4.18873 15.5596 4.42894C15.5599 4.46758 15.5601 4.50622 15.5604 4.54603C15.5611 4.67372 15.5612 4.80139 15.5613 4.92908C15.5616 5.01796 15.5618 5.10684 15.5621 5.19571C15.5625 5.38204 15.5627 5.56837 15.5626 5.7547C15.5626 5.99316 15.5636 6.23161 15.5649 6.47007C15.5657 6.65366 15.5659 6.83726 15.5658 7.02086C15.5659 7.10875 15.5662 7.19665 15.5668 7.28455C15.5675 7.40765 15.5673 7.53073 15.5669 7.65383C15.5673 7.68995 15.5677 7.72607 15.5681 7.76328C15.5657 8.02576 15.508 8.22216 15.3369 8.42446C15.3064 8.44929 15.3064 8.44929 15.2752 8.47462C15.255 8.49174 15.2348 8.50887 15.214 8.52651C14.9986 8.66018 14.7819 8.65726 14.5369 8.65703C14.4991 8.65728 14.4612 8.65753 14.4222 8.65778C14.2973 8.65849 14.1724 8.65863 14.0475 8.65871C13.9604 8.65895 13.8734 8.6592 13.7863 8.65946C13.6038 8.65991 13.4214 8.66004 13.2389 8.66C13.0056 8.65999 12.7723 8.661 12.5389 8.66228C12.3591 8.66311 12.1792 8.66326 11.9994 8.66322C11.9134 8.66331 11.8274 8.66363 11.7414 8.66421C11.6209 8.66494 11.5004 8.66472 11.3799 8.66428C11.3446 8.66469 11.3094 8.66511 11.2731 8.66554C11.0131 8.6631 10.7776 8.61386 10.5804 8.43395C10.3571 8.19578 10.3425 7.94683 10.3434 7.63373C10.3432 7.59581 10.343 7.55788 10.3428 7.51881C10.3423 7.39374 10.3423 7.26868 10.3424 7.14361C10.3422 7.05644 10.3421 6.96928 10.3419 6.88212C10.3416 6.69951 10.3416 6.5169 10.3418 6.33429C10.342 6.10061 10.3414 5.86694 10.3406 5.63327C10.34 5.45327 10.34 5.27327 10.3401 5.09327C10.3401 5.00713 10.3399 4.921 10.3395 4.83486C10.339 4.71425 10.3393 4.59366 10.3397 4.47305C10.3394 4.43769 10.3392 4.40232 10.3389 4.36589C10.3408 4.11793 10.3698 3.89908 10.5342 3.70171C10.5587 3.68172 10.5833 3.66172 10.6087 3.64112C10.6331 3.62055 10.6575 3.59998 10.6826 3.57879C10.8929 3.43628 11.0852 3.43992 11.3316 3.44015ZM12.0977 5.19507C12.0977 5.75839 12.0977 6.32171 12.0977 6.90211C12.661 6.90211 13.2243 6.90211 13.8047 6.90211C13.8047 6.33879 13.8047 5.77546 13.8047 5.19507C13.2414 5.19507 12.6781 5.19507 12.0977 5.19507Z" fill="#2D313A" fill-opacity="0.329412"/>
<path d="M1.41922 12.226C1.61749 12.3854 1.72435 12.5596 1.75436 12.8158C1.75837 12.9144 1.759 13.0125 1.75835 13.1112C1.75855 13.1484 1.75875 13.1856 1.75895 13.2239C1.75931 13.3042 1.75943 13.3846 1.75931 13.4649C1.75914 13.5922 1.75967 13.7195 1.76036 13.8469C1.76196 14.1629 1.76237 14.479 1.76282 14.7951C1.76325 15.0625 1.76413 15.33 1.76559 15.5974C1.7661 15.7225 1.76594 15.8477 1.76576 15.9728C1.76611 16.0499 1.76649 16.1269 1.7669 16.204C1.76667 16.2385 1.76645 16.2731 1.76621 16.3087C1.76867 16.5706 1.80641 16.7822 1.98064 16.9885C2.17132 17.1474 2.32648 17.2226 2.57416 17.223C2.62245 17.2232 2.62245 17.2232 2.67172 17.2234C2.70675 17.2234 2.74178 17.2234 2.77787 17.2234C2.815 17.2235 2.85213 17.2236 2.89038 17.2238C2.97101 17.224 3.05164 17.2242 3.13227 17.2244C3.26004 17.2246 3.38781 17.2252 3.51558 17.2259C3.87888 17.2279 4.24217 17.2296 4.60547 17.2302C4.82773 17.2306 5.04998 17.2317 5.27224 17.2332C5.35679 17.2337 5.44135 17.2339 5.5259 17.2338C5.64447 17.2337 5.76301 17.2345 5.88158 17.2356C5.91623 17.2353 5.95088 17.2351 5.98659 17.2348C6.24418 17.2385 6.4755 17.2904 6.67416 17.4636C6.85494 17.6504 6.92557 17.8708 6.9533 18.125C6.92313 18.4116 6.85631 18.6514 6.64251 18.8509C6.41382 19.0069 6.20253 19.0207 5.93183 19.0186C5.89136 19.0188 5.85089 19.0191 5.80919 19.0194C5.67595 19.02 5.54274 19.0196 5.40949 19.0191C5.31631 19.0192 5.22313 19.0193 5.12995 19.0195C4.93474 19.0197 4.73954 19.0194 4.54432 19.0187C4.34471 19.018 4.14511 19.018 3.9455 19.0187C3.70358 19.0196 3.46167 19.0197 3.21974 19.0192C3.12799 19.0191 3.03624 19.0193 2.94449 19.0196C2.02807 19.0223 2.02807 19.0223 1.59563 18.8509C1.56917 18.8411 1.54272 18.8313 1.51546 18.8212C0.878966 18.5683 0.410375 18.025 0.140311 17.4073C0.0227567 17.0921 -0.0165536 16.7842 -0.0150642 16.4499C-0.0153189 16.4091 -0.0155736 16.3682 -0.015836 16.3262C-0.0165089 16.1927 -0.0163723 16.0592 -0.0161605 15.9257C-0.0163299 15.8322 -0.0165269 15.7387 -0.0167499 15.6452C-0.0170803 15.4499 -0.0170013 15.2547 -0.0166225 15.0594C-0.0161956 14.8343 -0.016721 14.6093 -0.0177134 14.3843C-0.0186368 14.1666 -0.0187276 13.949 -0.0184885 13.7313C-0.0184828 13.6392 -0.0187065 13.547 -0.0191671 13.4549C-0.0197204 13.3261 -0.0193243 13.1974 -0.0186882 13.0686C-0.019047 13.0309 -0.0194057 12.9931 -0.0197754 12.9541C-0.0170231 12.6874 0.0338063 12.4815 0.217368 12.2817C0.586729 12.0177 1.02869 11.9693 1.41922 12.226Z" fill="#2D313A" fill-opacity="0.329412"/>
<path d="M2.54952 -0.0148201C2.59037 -0.0150748 2.63122 -0.0153295 2.67331 -0.0155919C2.80681 -0.0162648 2.9403 -0.0161282 3.0738 -0.0159163C3.1673 -0.0160858 3.2608 -0.0162827 3.3543 -0.0165058C3.54956 -0.0168362 3.74481 -0.0167572 3.94007 -0.0163784C4.16513 -0.0159514 4.39016 -0.0164768 4.61522 -0.0174693C4.83286 -0.0183927 5.05049 -0.0184834 5.26813 -0.0182442C5.36027 -0.0182386 5.45242 -0.0184624 5.54456 -0.018923C5.67333 -0.0194764 5.80206 -0.0190801 5.93082 -0.0184441C5.96861 -0.0188028 6.00641 -0.0191616 6.04534 -0.0195312C6.31202 -0.016779 6.51801 0.0340504 6.71777 0.217612C6.89406 0.464223 6.96662 0.693608 6.93955 1.00213C6.88877 1.25695 6.77538 1.47112 6.56846 1.63299C6.33495 1.73889 6.14284 1.76027 5.88831 1.75859C5.85111 1.75879 5.8139 1.75899 5.77556 1.7592C5.69522 1.75956 5.61487 1.75967 5.53453 1.75956C5.40722 1.75939 5.27992 1.75991 5.15261 1.76061C4.83653 1.7622 4.52044 1.76261 4.20435 1.76307C3.93692 1.76349 3.6695 1.76437 3.40208 1.76584C3.27693 1.76634 3.1518 1.76619 3.02665 1.76601C2.9496 1.76636 2.87254 1.76673 2.79548 1.76715C2.76093 1.76692 2.72637 1.76669 2.69077 1.76645C2.42882 1.76891 2.21729 1.80666 2.01096 1.98089C1.85206 2.17157 1.77689 2.32673 1.77648 2.5744C1.77633 2.6066 1.77618 2.63879 1.77603 2.67196C1.77606 2.72451 1.77606 2.72451 1.77609 2.77811C1.77596 2.81524 1.77583 2.85237 1.7757 2.89062C1.77542 2.97125 1.77522 3.05188 1.77509 3.13251C1.77483 3.26028 1.77424 3.38805 1.77356 3.51582C1.77161 3.87912 1.76983 4.24241 1.76926 4.60571C1.76888 4.82798 1.76779 5.05023 1.76624 5.27249C1.76578 5.35704 1.76559 5.44159 1.76567 5.52614C1.76576 5.64472 1.76494 5.76325 1.76391 5.88182C1.76428 5.9338 1.76428 5.9338 1.76465 5.98683C1.76101 6.24442 1.70903 6.47575 1.53587 6.67441C1.34911 6.85518 1.12871 6.92581 0.87449 6.95354C0.587842 6.92337 0.348084 6.85655 0.148538 6.64275C-0.00782045 6.4137 -0.0210923 6.20207 -0.0185179 5.9309C-0.0188187 5.87001 -0.0188187 5.87001 -0.0191255 5.8079C-0.0195879 5.6743 -0.0189773 5.54073 -0.0183095 5.40713C-0.0183153 5.31377 -0.0183706 5.22041 -0.0184732 5.12706C-0.0185245 4.93153 -0.0180755 4.73601 -0.0172133 4.54049C-0.016228 4.31553 -0.0161605 4.09058 -0.0165969 3.86562C-0.0169994 3.64806 -0.0167612 3.43051 -0.0162422 3.21295C-0.0160754 3.12093 -0.0160616 3.0289 -0.0162076 2.93688C-0.0163166 2.80778 -0.0156989 2.6787 -0.014894 2.5496C-0.015061 2.51211 -0.0152281 2.47461 -0.0154002 2.43599C-0.0115592 2.06209 0.0711187 1.70684 0.241311 1.37322C0.253943 1.3483 0.266575 1.32338 0.279589 1.29771C0.585115 0.725602 1.14702 0.271884 1.76637 0.0819572C2.03183 0.0112353 2.27545 -0.0160413 2.54952 -0.0148201Z" fill="#2D313A" fill-opacity="0.329412"/>
<path d="M18.697 12.211C18.8732 12.343 18.9819 12.5317 19.0139 12.7482C19.0194 12.8554 19.0202 12.9616 19.0193 13.0689C19.0196 13.1094 19.0199 13.1499 19.0201 13.1916C19.0208 13.3248 19.0203 13.458 19.0198 13.5913C19.0199 13.6845 19.0201 13.7776 19.0203 13.8708C19.0205 14.066 19.0202 14.2612 19.0195 14.4564C19.0188 14.6561 19.0188 14.8557 19.0195 15.0553C19.0203 15.2972 19.0205 15.5391 19.02 15.781C19.0199 15.8728 19.02 15.9645 19.0204 16.0563C19.0231 16.9727 19.0231 16.9727 18.8517 17.4051C18.8419 17.4316 18.8321 17.4581 18.822 17.4853C18.569 18.1218 18.0258 18.5904 17.4081 18.8605C17.0929 18.978 16.785 19.0173 16.4507 19.0158C16.4099 19.0161 16.369 19.0163 16.3269 19.0166C16.1934 19.0173 16.0599 19.0171 15.9264 19.0169C15.8329 19.0171 15.7394 19.0173 15.6459 19.0175C15.4507 19.0178 15.2554 19.0178 15.0602 19.0174C14.8351 19.017 14.6101 19.0175 14.385 19.0185C14.1674 19.0194 13.9497 19.0195 13.7321 19.0193C13.64 19.0193 13.5478 19.0195 13.4557 19.0199C13.3269 19.0205 13.1982 19.0201 13.0694 19.0195C13.0316 19.0198 12.9938 19.0202 12.9549 19.0205C12.6882 19.0178 12.4822 18.967 12.2825 18.7834C12.1062 18.5368 12.0336 18.3074 12.0607 17.9989C12.1115 17.7441 12.2249 17.5299 12.4318 17.368C12.6653 17.2621 12.8574 17.2407 13.1119 17.2424C13.1677 17.2421 13.1677 17.2421 13.2247 17.2418C13.305 17.2415 13.3854 17.2413 13.4657 17.2415C13.593 17.2416 13.7203 17.2411 13.8476 17.2404C14.1637 17.2388 14.4798 17.2384 14.7959 17.2379C15.0633 17.2375 15.3307 17.2366 15.5982 17.2352C15.7233 17.2347 15.8484 17.2348 15.9736 17.235C16.0506 17.2347 16.1277 17.2343 16.2048 17.2339C16.2393 17.2341 16.2739 17.2343 16.3095 17.2346C16.5714 17.2321 16.7829 17.1944 16.9893 17.0201C17.1482 16.8294 17.2233 16.6743 17.2238 16.4266C17.2239 16.3944 17.2241 16.3622 17.2242 16.3291C17.2242 16.294 17.2242 16.259 17.2241 16.2229C17.2243 16.1858 17.2244 16.1486 17.2245 16.1104C17.2248 16.0298 17.225 15.9491 17.2251 15.8685C17.2254 15.7407 17.226 15.613 17.2267 15.4852C17.2286 15.1219 17.2304 14.7586 17.231 14.3953C17.2314 14.173 17.2324 13.9508 17.234 13.7285C17.2345 13.644 17.2346 13.5594 17.2346 13.4749C17.2345 13.3563 17.2353 13.2378 17.2363 13.1192C17.2361 13.0845 17.2358 13.0499 17.2356 13.0142C17.2392 12.7566 17.2912 12.5253 17.4644 12.3266C17.8027 11.9991 18.2965 11.9855 18.697 12.211Z" fill="#2D313A" fill-opacity="0.329412"/>
<path d="M13.0681 -0.0198884C13.1086 -0.0201485 13.149 -0.0204086 13.1907 -0.0206766C13.324 -0.0213276 13.4572 -0.0208979 13.5904 -0.0203957C13.6836 -0.0204958 13.7768 -0.02064 13.87 -0.0208261C14.0652 -0.0210447 14.2604 -0.020742 14.4556 -0.0200333C14.6552 -0.019317 14.8548 -0.0193131 15.0544 -0.0200333C15.2964 -0.0208984 15.5383 -0.0210264 15.7802 -0.0205447C15.8719 -0.0204463 15.9637 -0.0205649 16.0554 -0.0209127C16.9719 -0.0236229 16.9719 -0.0236228 17.4043 0.147756C17.444 0.162471 17.444 0.162471 17.4845 0.177482C18.121 0.430432 18.5896 0.973681 18.8596 1.59134C18.9772 1.90654 19.0165 2.21449 19.015 2.54874C19.0152 2.58959 19.0155 2.63044 19.0158 2.67253C19.0164 2.80603 19.0163 2.93952 19.0161 3.07302C19.0163 3.16652 19.0165 3.26002 19.0167 3.35352C19.017 3.54878 19.0169 3.74403 19.0166 3.93929C19.0161 4.16434 19.0167 4.38938 19.0176 4.61443C19.0186 4.83207 19.0187 5.04971 19.0184 5.26735C19.0184 5.35949 19.0186 5.45164 19.0191 5.54378C19.0197 5.67255 19.0193 5.80128 19.0186 5.93004C19.0192 5.98673 19.0192 5.98673 19.0197 6.04456C19.017 6.31124 18.9661 6.51723 18.7826 6.71699C18.536 6.89328 18.3066 6.96584 17.998 6.93877C17.7432 6.88799 17.5291 6.77459 17.3672 6.56768C17.2613 6.33416 17.2399 6.14206 17.2416 5.88753C17.2414 5.85032 17.2412 5.81311 17.241 5.77478C17.2406 5.69444 17.2405 5.61409 17.2406 5.53375C17.2408 5.40644 17.2403 5.27914 17.2396 5.15183C17.238 4.83575 17.2376 4.51966 17.2371 4.20357C17.2367 3.93614 17.2358 3.66872 17.2343 3.4013C17.2338 3.27615 17.234 3.15102 17.2342 3.02587C17.2338 2.94881 17.2334 2.87176 17.233 2.7947C17.2333 2.76014 17.2335 2.72559 17.2337 2.68999C17.2313 2.42804 17.1935 2.21651 17.0193 2.01018C16.8286 1.85128 16.6734 1.77611 16.4258 1.7757C16.3936 1.77555 16.3614 1.7754 16.3282 1.77525C16.2932 1.77526 16.2582 1.77528 16.2221 1.7753C16.1849 1.77518 16.1478 1.77505 16.1096 1.77491C16.0289 1.77464 15.9483 1.77444 15.8677 1.77431C15.7399 1.77404 15.6121 1.77346 15.4844 1.77278C15.1211 1.77083 14.7578 1.76905 14.3945 1.76847C14.1722 1.7681 13.9499 1.76701 13.7277 1.76546C13.6431 1.765 13.5586 1.76481 13.474 1.76489C13.3555 1.76498 13.2369 1.76415 13.1184 1.76313C13.0837 1.76337 13.049 1.76362 13.0133 1.76387C12.7558 1.76023 12.5244 1.70824 12.3258 1.53509C12.145 1.34833 12.0744 1.12793 12.0466 0.873708C12.0768 0.58706 12.1436 0.347302 12.3574 0.147756C12.5861 -0.00816495 12.7974 -0.0220474 13.0681 -0.0198884Z" fill="#2D313A" fill-opacity="0.329412"/>
<path d="M12.1658 13.7974C12.1949 13.7972 12.2241 13.7969 12.2542 13.7967C12.3505 13.796 12.4469 13.7955 12.5433 13.7951C12.5763 13.795 12.6093 13.7948 12.6433 13.7947C12.8182 13.7939 12.993 13.7934 13.1678 13.793C13.3478 13.7926 13.5278 13.7914 13.7079 13.7899C13.8468 13.7889 13.9857 13.7886 14.1246 13.7885C14.1909 13.7883 14.2572 13.7879 14.3235 13.7872C15.069 13.7799 15.069 13.7799 15.3207 14.0174C15.5465 14.2582 15.569 14.4961 15.5602 14.8181C15.5392 15.0671 15.4547 15.21 15.2727 15.3765C15.08 15.5365 14.8938 15.5592 14.6491 15.5589C14.6187 15.5592 14.5884 15.5594 14.5572 15.5597C14.4572 15.5604 14.3573 15.5605 14.2573 15.5606C14.1875 15.5608 14.1178 15.5611 14.048 15.5613C13.9019 15.5618 13.7558 15.5619 13.6096 15.5619C13.4228 15.5619 13.236 15.5629 13.0492 15.5642C12.9052 15.565 12.7611 15.5651 12.6171 15.5651C12.5482 15.5652 12.4794 15.5655 12.4105 15.5661C12.314 15.5668 12.2175 15.5666 12.121 15.5662C12.0928 15.5666 12.0647 15.567 12.0357 15.5674C11.7765 15.5644 11.5846 15.4788 11.3994 15.2976C11.2207 15.0321 11.1724 14.7917 11.2069 14.472C11.2561 14.2615 11.3464 14.0727 11.5287 13.9466C11.7462 13.8165 11.9169 13.7983 12.1658 13.7974Z" fill="#2D313A" fill-opacity="0.329412"/>
<path d="M11.6975 10.4211C11.8895 10.5482 12.0276 10.7292 12.0976 10.9473C12.1055 11.0539 12.1097 11.1568 12.1101 11.2634C12.1103 11.2937 12.1105 11.3241 12.1108 11.3553C12.1112 11.4194 12.1114 11.4834 12.1113 11.5474C12.1115 11.6447 12.1128 11.7419 12.1143 11.8391C12.1145 11.9016 12.1146 11.964 12.1147 12.0265C12.1152 12.0552 12.1158 12.0839 12.1163 12.1135C12.1143 12.3543 12.0432 12.5475 11.883 12.7294C11.862 12.7459 11.841 12.7625 11.8193 12.7795C11.7982 12.7967 11.7772 12.8138 11.7555 12.8314C11.5476 12.9746 11.3289 13.0043 11.0793 12.9791C10.7862 12.9231 10.6016 12.7797 10.4277 12.543C10.3449 12.3821 10.3415 12.228 10.341 12.0507C10.3407 12.0213 10.3405 11.9918 10.3402 11.9615C10.3399 11.8994 10.3397 11.8373 10.3397 11.7751C10.3395 11.681 10.3382 11.5869 10.3368 11.4927C10.3321 10.8333 10.3321 10.8333 10.5658 10.5816C10.8542 10.3054 11.335 10.2598 11.6975 10.4211Z" fill="#2D313A" fill-opacity="0.329412"/>
<path d="M13.8855 10.3432C13.9141 10.343 13.9427 10.3429 13.9722 10.3427C14.0325 10.3425 14.0929 10.3425 14.1532 10.3426C14.2447 10.3428 14.3362 10.3419 14.4277 10.341C14.4866 10.3409 14.5455 10.3408 14.6044 10.3409C14.6314 10.3405 14.6584 10.3402 14.6862 10.3398C14.9125 10.3419 15.1195 10.3864 15.2979 10.535C15.3179 10.5596 15.3379 10.5842 15.3585 10.6095C15.3791 10.6339 15.3997 10.6583 15.4209 10.6834C15.5912 10.9348 15.5732 11.2133 15.5487 11.5048C15.4896 11.7354 15.3373 11.8958 15.1405 12.0243C14.9762 12.1075 14.8192 12.1105 14.6388 12.111C14.6085 12.1112 14.5781 12.1115 14.5469 12.1117C14.4828 12.1121 14.4188 12.1123 14.3548 12.1123C14.2575 12.1124 14.1603 12.1138 14.0631 12.1152C14.0006 12.1154 13.9382 12.1155 13.8757 12.1156C13.8326 12.1164 13.8326 12.1164 13.7887 12.1172C13.5478 12.1152 13.3561 12.0435 13.1728 11.8853C13.1563 11.8646 13.1397 11.8438 13.1227 11.8225C13.1056 11.8019 13.0884 11.7813 13.0708 11.76C12.9083 11.5111 12.927 11.2337 12.951 10.9481C13.0094 10.7201 13.161 10.5516 13.3593 10.4286C13.5357 10.3571 13.6973 10.343 13.8855 10.3432Z" fill="#2D313A" fill-opacity="0.329412"/>
</g>
<defs>
<clipPath id="clip0_1158_389">
<rect width="19" height="19" fill="white"/>
</clipPath>
</defs>
</svg>
