<svg width="25" height="22" viewBox="0 0 25 22" fill="none" xmlns="http://www.w3.org/2000/svg">
<g clip-path="url(#clip0_251_989)">
<path d="M2.74611 0H14.7166C14.1524 0.648994 13.6412 1.28504 13.1801 1.90382H2.74611C2.51409 1.90382 2.30292 1.99843 2.15036 2.14987C1.99283 2.30815 1.90437 2.52236 1.90431 2.74567V19.2544C1.90431 19.4835 2.00033 19.6936 2.15323 19.8465C2.30687 20.0001 2.51804 20.0962 2.74611 20.0962H21.3562C21.5828 20.0962 21.7933 19.9994 21.9472 19.8454C22.1012 19.6915 22.198 19.481 22.198 19.2544V9.95762C22.8375 9.69873 23.4722 9.42814 24.1018 9.14599V19.2544C24.1018 20.0073 23.7906 20.6944 23.2934 21.1916C22.7963 21.6888 22.1091 22 21.3562 22H2.74611C1.99313 22 1.3046 21.6903 0.807036 21.1927C0.310934 20.6966 0.000488281 20.0099 0.000488281 19.2544V2.74567C0.000488281 1.23792 1.23841 0 2.74611 0Z" fill="#333333"/>
<path d="M6.46884 7.88375L9.41989 7.84491C9.51009 7.84379 9.59874 7.8685 9.67535 7.91613C10.2721 8.26113 10.8352 8.65471 11.36 9.09865C11.7343 9.41587 12.0878 9.75676 12.4184 10.1192C13.4527 8.48059 14.705 6.80884 16.0199 5.24065C17.6464 3.30125 19.379 1.51036 20.9198 0.128531C21.0066 0.0506049 21.1193 0.00756549 21.236 0.00769522L23.4988 0.00585938C23.7615 0.00585938 23.9748 0.219194 23.9748 0.481814C23.9748 0.611358 23.9226 0.72937 23.8385 0.814949C21.7526 3.13324 19.6124 5.78962 17.6734 8.51118C15.8804 11.028 14.2561 13.6042 13.0023 16.0246C12.8821 16.2574 12.5954 16.3491 12.3627 16.2289C12.2629 16.1775 12.1847 16.0924 12.1418 15.9886C11.4554 14.5201 10.633 13.1678 9.65087 11.9555C8.66766 10.742 7.52111 9.6656 6.18786 8.75041C5.97165 8.60288 5.91592 8.30684 6.0634 8.09063C6.15764 7.95247 6.3127 7.87979 6.46884 7.88375Z" fill="#F39314"/>
</g>
<defs>
<clipPath id="clip0_251_989">
<rect width="24.1013" height="22" fill="white"/>
</clipPath>
</defs>
</svg>
