<svg width="24" height="29" viewBox="0 0 24 29" fill="none" xmlns="http://www.w3.org/2000/svg">
<path d="M6.53497 14.7325L7.93625 16.6243L10.4585 12.8408" stroke="#F39314" stroke-linecap="round"/>
<path d="M17.9749 5.26367L17.9807 5.26465C18.9119 5.31242 20.6952 5.93349 21.7219 7.87891C21.8628 8.14586 21.9439 8.30585 22.0549 8.75391C22.1701 9.21908 22.1682 9.54577 22.1682 10.0791V12.251C22.8212 12.4375 23.2991 13.0381 23.2991 13.751V20.4775C23.2987 21.3391 22.6001 22.0371 21.7385 22.0371H13.4709C12.6095 22.0369 11.9107 21.339 11.9104 20.4775V13.751C11.9104 12.8893 12.6093 12.1907 13.4709 12.1904H19.2063V10.0947C19.2063 9.84082 19.2082 9.74264 19.1389 9.43066C19.0987 9.24953 19.0775 9.16468 19.0657 9.12109C19.0632 9.11209 19.0617 9.10648 19.0608 9.10352C18.8236 8.59655 18.382 8.12517 17.6252 8.15527L17.593 8.15625L17.5618 8.15332C17.2857 8.12942 16.6417 8.25298 16.2385 8.95703C16.2208 8.98806 16.218 8.99269 16.2053 9.02832C16.1862 9.08219 16.1553 9.18157 16.0989 9.39355C16.0028 9.75466 16.0032 9.90844 16.0032 10.3057V11.168H13.2454L13.1028 10.9092L13.5413 10.668L13.1028 10.9082L13.1018 10.9062L13.0999 10.9043C13.0988 10.9024 13.098 10.8996 13.0969 10.8975C13.0947 10.8932 13.0927 10.888 13.0901 10.8828C13.0849 10.8723 13.0788 10.8601 13.0725 10.8457C13.0597 10.8163 13.0445 10.7784 13.0295 10.7324C12.9995 10.6401 12.9684 10.5138 12.9485 10.3525C12.9086 10.0294 12.9136 9.56842 13.053 8.94727C13.3293 7.71639 14.637 5.29617 17.675 5.25977L17.9749 5.26367ZM13.4709 13.1904L13.3577 13.2021C13.1026 13.2547 12.9104 13.4804 12.9104 13.751V20.4775L12.9221 20.5898C12.9669 20.8086 13.139 20.9814 13.3577 21.0264L13.4709 21.0371H21.7385L21.8518 21.0264C22.0705 20.9815 22.2426 20.8086 22.2874 20.5898L22.2991 20.4775V13.751C22.2991 13.4803 22.107 13.2546 21.8518 13.2021L21.8333 13.2002H19.2063V13.1904H13.4709ZM17.9358 6.2627C15.3592 6.16384 14.2572 8.14788 14.0286 9.16602C13.9228 9.63735 13.9182 9.96433 13.9358 10.168H15.0042C15.0056 9.82144 15.0178 9.57013 15.1331 9.13672C15.2473 8.7072 15.2855 8.60826 15.3704 8.45996C15.9936 7.37157 17.0322 7.11219 17.6282 7.15625C18.9158 7.12421 19.6399 7.98097 19.967 8.68066C20.0168 8.78715 20.0381 8.87006 20.1145 9.21387C20.2053 9.62248 20.2063 9.79954 20.2063 10.0947V12.1904H21.1682V10.0791C21.1682 9.53719 21.1663 9.32546 21.0842 8.99414C20.998 8.64608 20.952 8.56335 20.8372 8.3457C20.0038 6.76677 18.5778 6.29815 17.9358 6.2627Z" fill="#F39314"/>
<path d="M16.5537 0.84082C17.6476 0.840844 18.5349 1.72748 18.5352 2.82129V5H17.5352V2.82129C17.5349 2.27977 17.0953 1.84084 16.5537 1.84082H2.82129C2.27989 1.84105 1.84105 2.27989 1.84082 2.82129V26.9238L1.8457 27.0234C1.89579 27.5181 2.31351 27.9041 2.82129 27.9043H16.5537C17.0617 27.9043 17.4802 27.5182 17.5303 27.0234L17.5352 26.9238V22H18.5352V26.9238C18.5349 28.0176 17.6476 28.9043 16.5537 28.9043H2.82129C1.7276 28.9041 0.841039 28.0175 0.84082 26.9238V2.82129C0.841048 1.72761 1.72761 0.841049 2.82129 0.84082H16.5537Z" fill="#F39314"/>
<path d="M6.88538 3.3125H12.6306" stroke="#F39314" stroke-linecap="round"/>
<path d="M4.08282 25.3818L15.4331 25.3818" stroke="#F39314" stroke-linecap="round"/>
<path d="M11.5796 9.68831C9.64872 9.10903 5.75472 9.13286 4.4387 13.3122C4.19101 14.0988 4.16042 14.9449 4.35966 15.7452C5.01985 18.3969 7.21327 21.6186 12.4204 19.4972" stroke="#F39314" stroke-linecap="round"/>
<path d="M16.9459 14.9537C15.7533 15.5079 16.066 16.6735 16.4774 17.3466C16.5238 17.4225 16.537 17.5145 16.508 17.5985L15.9816 19.1251C15.9188 19.3071 16.054 19.4968 16.2465 19.4968H18.8361C19.0249 19.4968 19.1597 19.3138 19.1038 19.1334L18.6309 17.6098C18.6028 17.5194 18.6236 17.4206 18.681 17.3453C19.5582 16.1954 19.0429 15.4382 18.3744 15.0313C17.9454 14.7701 17.4013 14.742 16.9459 14.9537Z" stroke="#F39314" stroke-linecap="round"/>
</svg>
